<svg xmlns="http://www.w3.org/2000/svg" viewBox="0 0 64 64" width="64" height="64">
  <rect width="64" height="64" rx="14" fill="#8B5E3C"/>
  <path d="M20 22h17a9 9 0 0 1 0 18h-3v6a2 2 0 0 1-2 2H22a2 2 0 0 1-2-2V22z" fill="none" stroke="#F7F2EC" stroke-width="3.5" stroke-linejoin="round"/>
  <path d="M37 27h1.5a4 4 0 0 1 0 8H37" fill="none" stroke="#F7F2EC" stroke-width="3" stroke-linejoin="round"/>
  <path d="M24 12c0 3-3 3-3 6M31 12c0 3-3 3-3 6" fill="none" stroke="#C8A15A" stroke-width="3" stroke-linecap="round"/>
</svg>
